<?xml version="1.0" standalone="no"?>
<!DOCTYPE svg PUBLIC "-//W3C//DTD SVG 20010904//EN"
 "http://www.w3.org/TR/2001/REC-SVG-20010904/DTD/svg10.dtd">
<svg version="1.0" xmlns="http://www.w3.org/2000/svg"
 width="100.000000pt" height="100.000000pt" viewBox="0 0 100.000000 100.000000"
 preserveAspectRatio="xMidYMid meet">

<g transform="translate(0.000000,100.000000) scale(0.100000,-0.100000)"
fill="#000000" stroke="none">
<path d="M60 900 c-19 -19 -20 -33 -20 -400 0 -367 1 -381 20 -400 19 -19 33
-20 440 -20 407 0 421 1 440 20 19 19 20 33 20 360 0 327 -1 341 -20 360 -19
19 -33 20 -299 20 l-279 0 -32 40 -32 40 -109 0 c-96 0 -111 -2 -129 -20z
m252 -60 l28 -40 287 -2 288 -3 3 -27 3 -28 -420 0 -421 0 0 63 c0 35 3 67 7
70 3 4 49 7 102 7 l96 -1 27 -39z m603 -430 l0 -285 -415 0 -415 0 -3 275 c-1
151 0 280 3 287 3 11 90 13 417 11 l413 -3 0 -285z"/>
<path d="M353 585 c-39 -16 -73 -68 -73 -109 0 -51 37 -110 124 -194 46 -45
88 -82 94 -82 15 0 105 80 155 138 69 80 83 140 47 200 -34 56 -112 77 -170
47 -27 -14 -33 -14 -60 0 -36 19 -75 19 -117 0z m115 -45 c32 -20 32 -20 65 0
46 28 83 26 118 -9 35 -35 36 -58 8 -114 -23 -43 -139 -167 -158 -167 -19 0
-138 124 -160 167 -28 56 -27 79 8 114 35 35 72 37 119 9z"/>
</g>
</svg>
