<?xml version="1.0" standalone="no"?>
<!DOCTYPE svg PUBLIC "-//W3C//DTD SVG 20010904//EN"
 "http://www.w3.org/TR/2001/REC-SVG-20010904/DTD/svg10.dtd">
<svg version="1.0" xmlns="http://www.w3.org/2000/svg"
 width="64.000000pt" height="64.000000pt" viewBox="0 0 64.000000 64.000000"
 preserveAspectRatio="xMidYMid meet">

<g transform="translate(0.000000,64.000000) scale(0.100000,-0.100000)"
fill="#000000" stroke="none">
<path d="M5 567 c-3 -7 -4 -114 -3 -237 l3 -225 142 -3 143 -3 0 -25 c0 -26 0
-26 62 -19 l63 7 108 106 c59 59 110 117 114 130 4 18 -3 33 -35 65 -41 42
-41 42 -44 127 l-3 85 -273 3 c-215 2 -274 0 -277 -11z m535 -27 c0 -19 -7
-20 -260 -20 -253 0 -260 1 -260 20 0 19 7 20 260 20 253 0 260 -1 260 -20z
m0 -84 c0 -43 -3 -47 -120 -162 -97 -95 -120 -123 -120 -146 l0 -28 -140 0
-140 0 0 190 0 190 260 0 260 0 0 -44z m47 -108 c37 -36 40 -49 17 -69 -13
-11 -21 -6 -56 29 -35 35 -40 43 -29 56 19 23 31 20 68 -16z m-52 -58 c21 -22
36 -43 32 -47 -8 -7 -87 65 -87 79 0 17 17 7 55 -32z m-30 -30 l39 -40 -59
-60 c-56 -57 -60 -59 -68 -38 -4 12 -13 26 -20 30 -8 5 -3 16 17 37 37 39 26
54 -12 18 -16 -15 -37 -27 -47 -27 -15 0 -5 15 40 60 33 33 62 60 65 60 3 0
24 -18 45 -40z m-129 -122 c33 -32 31 -58 -4 -58 -36 0 -52 16 -52 52 0 35 23
37 56 6z"/>
<path d="M130 445 c-7 -9 -21 -13 -31 -10 -23 8 -25 -8 -4 -25 13 -11 20 -9
40 10 14 13 25 27 25 32 0 13 -17 9 -30 -7z"/>
<path d="M180 430 c0 -5 14 -10 30 -10 17 0 30 5 30 10 0 6 -13 10 -30 10 -16
0 -30 -4 -30 -10z"/>
<path d="M260 430 c0 -6 37 -10 90 -10 53 0 90 4 90 10 0 6 -37 10 -90 10 -53
0 -90 -4 -90 -10z"/>
<path d="M130 365 c-7 -9 -21 -13 -31 -10 -23 8 -25 -8 -4 -25 13 -11 20 -9
40 10 14 13 25 27 25 32 0 13 -17 9 -30 -7z"/>
<path d="M180 350 c0 -6 50 -10 130 -10 80 0 130 4 130 10 0 6 -50 10 -130 10
-80 0 -130 -4 -130 -10z"/>
<path d="M130 285 c-7 -9 -21 -13 -31 -10 -23 8 -25 -8 -4 -25 13 -11 20 -9
40 10 14 13 25 27 25 32 0 13 -17 9 -30 -7z"/>
<path d="M180 270 c0 -6 30 -10 70 -10 40 0 70 4 70 10 0 6 -30 10 -70 10 -40
0 -70 -4 -70 -10z"/>
<path d="M50 160 c0 -11 5 -20 10 -20 6 0 10 9 10 20 0 11 -4 20 -10 20 -5 0
-10 -9 -10 -20z"/>
<path d="M100 160 c0 -11 5 -20 10 -20 6 0 10 9 10 20 0 11 -4 20 -10 20 -5 0
-10 -9 -10 -20z"/>
<path d="M150 160 c0 -11 5 -20 10 -20 6 0 10 9 10 20 0 11 -4 20 -10 20 -5 0
-10 -9 -10 -20z"/>
<path d="M200 160 c0 -11 5 -20 10 -20 6 0 10 9 10 20 0 11 -4 20 -10 20 -5 0
-10 -9 -10 -20z"/>
<path d="M250 160 c0 -11 5 -20 10 -20 6 0 10 9 10 20 0 11 -4 20 -10 20 -5 0
-10 -9 -10 -20z"/>
</g>
</svg>
