<?xml version="1.0" standalone="no"?>
<!DOCTYPE svg PUBLIC "-//W3C//DTD SVG 20010904//EN"
 "http://www.w3.org/TR/2001/REC-SVG-20010904/DTD/svg10.dtd">
<svg version="1.0" xmlns="http://www.w3.org/2000/svg"
 width="100.000000pt" height="100.000000pt" viewBox="0 0 100.000000 100.000000"
 preserveAspectRatio="xMidYMid meet">

<g transform="translate(0.000000,100.000000) scale(0.100000,-0.100000)"
fill="#000000" stroke="none">
<path d="M303 861 c-3 -11 -13 -21 -24 -24 -10 -3 -19 -10 -19 -17 0 -7 9 -14
19 -17 11 -3 21 -13 24 -24 3 -10 10 -19 17 -19 7 0 14 9 17 19 3 11 13 21 24
24 10 3 19 10 19 17 0 7 -9 14 -19 17 -11 3 -21 13 -24 24 -7 25 -27 25 -34 0z"/>
<path d="M501 729 c-114 -33 -201 -149 -201 -269 0 -160 146 -293 305 -277 59
6 126 36 168 76 34 31 73 103 82 152 l6 35 -41 -4 c-70 -7 -129 16 -186 72
-56 57 -79 116 -72 185 4 45 0 47 -61 30z m59 -194 c45 -72 150 -135 226 -135
24 0 24 0 9 -37 -22 -53 -61 -91 -120 -119 -94 -44 -183 -27 -260 51 -70 70
-91 146 -63 236 15 52 73 118 122 140 l41 18 12 -60 c6 -33 21 -75 33 -94z"/>
<path d="M135 620 c-18 -20 -18 -21 3 -43 l22 -21 22 21 c21 22 21 23 3 43
-10 11 -21 20 -25 20 -4 0 -15 -9 -25 -20z"/>
</g>
</svg>
