<?xml version="1.0" standalone="no"?>
<!DOCTYPE svg PUBLIC "-//W3C//DTD SVG 20010904//EN"
 "http://www.w3.org/TR/2001/REC-SVG-20010904/DTD/svg10.dtd">
<svg version="1.0" xmlns="http://www.w3.org/2000/svg"
 width="100.000000pt" height="100.000000pt" viewBox="0 0 100.000000 100.000000"
 preserveAspectRatio="xMidYMid meet">

<g transform="translate(0.000000,100.000000) scale(0.100000,-0.100000)"
fill="#000000" stroke="none">
<path d="M771 759 l-80 -90 -223 -3 c-182 -2 -233 -6 -278 -20 -82 -27 -93
-40 -86 -103 12 -105 71 -200 156 -252 40 -25 49 -36 52 -63 l3 -33 165 0 165
0 3 35 c2 29 9 39 38 55 86 46 159 166 166 271 3 49 3 49 -39 70 l-42 22 73
62 c41 34 77 69 80 77 10 24 -21 63 -49 63 -18 0 -45 -24 -104 -91z m138 63
c6 -10 6 -24 0 -34 -7 -13 -94 -90 -231 -206 -10 -8 -22 -11 -31 -5 -12 6 9
36 96 136 114 130 144 150 166 109z m-256 -178 c4 -4 -3 -20 -14 -35 l-20 -29
26 -12 c19 -9 28 -9 37 0 7 7 21 12 33 12 15 0 17 2 6 9 -10 7 -8 12 9 24 17
12 29 13 53 5 51 -17 61 -28 42 -47 -11 -11 -31 -15 -70 -14 -43 2 -55 0 -55
-12 0 -20 -18 -19 -69 6 -26 12 -53 18 -66 15 -19 -5 -22 -3 -18 14 4 13 14
20 32 21 18 1 12 4 -19 11 -25 6 -52 10 -60 9 -8 0 -67 -2 -130 -5 -99 -3
-122 -8 -167 -30 -50 -26 -83 -26 -83 -1 0 16 48 36 125 51 63 13 397 19 408
8z m-163 -46 c-34 -6 -33 -7 8 -5 28 2 42 -2 42 -10 0 -8 -13 -13 -34 -13 -39
0 -66 8 -66 20 0 12 53 28 70 21 9 -4 2 -8 -20 -13z m-172 0 c18 -18 15 -25
-19 -37 -21 -7 -37 -7 -50 0 -27 14 -24 31 4 18 15 -7 30 -7 47 1 25 10 25 10
-3 5 -33 -7 -56 3 -36 16 20 12 43 11 57 -3z m87 -24 c19 4 36 2 40 -4 3 -5
24 -10 46 -10 32 0 39 -3 39 -20 0 -19 -17 -25 -60 -22 -8 1 -60 3 -116 6
-105 5 -188 21 -179 35 6 11 45 21 45 12 0 -4 11 -13 24 -19 35 -16 92 2 100
31 6 21 7 21 17 4 9 -15 18 -17 44 -13z m5 16 c0 -5 -9 -10 -20 -10 -11 0 -20
5 -20 10 0 6 9 10 20 10 11 0 20 -4 20 -10z m210 -45 c14 -8 21 -15 15 -15 -5
-1 -29 -3 -52 -6 -24 -2 -43 0 -43 5 0 5 10 7 23 5 12 -2 16 -2 10 2 -7 3 -13
10 -13 15 0 13 31 10 60 -6z m-257 -43 c158 -10 340 2 412 26 l57 19 -7 -35
c-16 -86 -85 -176 -167 -218 -43 -22 -59 -24 -181 -24 -123 0 -137 2 -185 26
-28 14 -65 42 -83 62 -32 36 -72 114 -83 163 l-6 27 63 -20 c36 -11 110 -22
180 -26z m380 41 c-7 -2 -19 -2 -25 0 -7 3 -2 5 12 5 14 0 19 -2 13 -5z m-115
-310 c-3 -16 -20 -18 -151 -21 -142 -2 -147 -2 -147 18 0 19 6 20 151 20 138
0 150 -1 147 -17z"/>
<path d="M347 554 c-10 -11 -9 -24 4 -24 5 0 7 5 4 10 -4 6 5 10 20 10 15 0
24 -4 20 -10 -3 -5 -1 -10 5 -10 7 0 10 6 8 13 -5 13 -50 22 -61 11z"/>
<path d="M766 463 c-6 -14 -5 -15 5 -6 7 7 10 15 7 18 -3 3 -9 -2 -12 -12z"/>
<path d="M731 403 c-12 -14 -36 -37 -53 -50 -18 -12 -28 -23 -24 -23 15 0 65
41 86 70 26 37 19 40 -9 3z"/>
</g>
</svg>
